<mxfile host="drawio-plugin" modified="2024-12-17T13:47:17.356Z" agent="Mozilla/5.0 (X11; Linux x86_64) AppleWebKit/537.36 (KHTML, like Gecko) Chrome/122.0.0.0 Safari/537.36" version="22.1.22" etag="Qhh6UmznMNoD2Adnvpi5" type="embed" pages="3">
  <diagram id="XGcU5-N_YiSxcfZuJ0WB" name="Idea">
    <mxGraphModel dx="790" dy="1613" grid="1" gridSize="10" guides="1" tooltips="1" connect="1" arrows="1" fold="1" page="1" pageScale="1" pageWidth="850" pageHeight="1100" math="0" shadow="0">
      <root>
        <mxCell id="0" />
        <mxCell id="1" parent="0" />
        <mxCell id="4" value="" style="edgeStyle=orthogonalEdgeStyle;rounded=0;orthogonalLoop=1;jettySize=auto;html=1;" edge="1" parent="1" source="2" target="3">
          <mxGeometry relative="1" as="geometry" />
        </mxCell>
        <mxCell id="16" value="" style="edgeStyle=orthogonalEdgeStyle;rounded=0;orthogonalLoop=1;jettySize=auto;html=1;entryX=1;entryY=0.5;entryDx=0;entryDy=0;" edge="1" parent="1" source="2" target="17">
          <mxGeometry relative="1" as="geometry">
            <mxPoint x="285" y="310" as="targetPoint" />
          </mxGeometry>
        </mxCell>
        <mxCell id="22" value="" style="edgeStyle=orthogonalEdgeStyle;rounded=0;orthogonalLoop=1;jettySize=auto;html=1;" edge="1" parent="1" source="2" target="21">
          <mxGeometry relative="1" as="geometry" />
        </mxCell>
        <mxCell id="2" value="LLM" style="rounded=0;whiteSpace=wrap;html=1;fillColor=#ffe6cc;strokeColor=#d79b00;" vertex="1" parent="1">
          <mxGeometry x="365" y="280" width="120" height="60" as="geometry" />
        </mxCell>
        <mxCell id="6" value="" style="edgeStyle=orthogonalEdgeStyle;rounded=0;orthogonalLoop=1;jettySize=auto;html=1;" edge="1" parent="1" source="3" target="5">
          <mxGeometry relative="1" as="geometry" />
        </mxCell>
        <mxCell id="8" value="" style="edgeStyle=orthogonalEdgeStyle;rounded=0;orthogonalLoop=1;jettySize=auto;html=1;" edge="1" parent="1" source="3" target="7">
          <mxGeometry relative="1" as="geometry" />
        </mxCell>
        <mxCell id="12" value="" style="edgeStyle=orthogonalEdgeStyle;rounded=0;orthogonalLoop=1;jettySize=auto;html=1;entryX=0.5;entryY=1;entryDx=0;entryDy=0;" edge="1" parent="1" source="3" target="11">
          <mxGeometry relative="1" as="geometry">
            <mxPoint x="790" y="380" as="targetPoint" />
          </mxGeometry>
        </mxCell>
        <mxCell id="26" value="" style="edgeStyle=orthogonalEdgeStyle;rounded=0;orthogonalLoop=1;jettySize=auto;html=1;entryX=0.5;entryY=0;entryDx=0;entryDy=0;" edge="1" parent="1" source="3" target="27">
          <mxGeometry relative="1" as="geometry">
            <mxPoint x="824.9655172413793" y="420" as="targetPoint" />
          </mxGeometry>
        </mxCell>
        <mxCell id="3" value="Use Cases RAG" style="rounded=0;whiteSpace=wrap;html=1;fillColor=#dae8fc;strokeColor=#6c8ebf;" vertex="1" parent="1">
          <mxGeometry x="565" y="280" width="120" height="60" as="geometry" />
        </mxCell>
        <mxCell id="5" value="customer case management" style="rounded=0;whiteSpace=wrap;html=1;" vertex="1" parent="1">
          <mxGeometry x="565" y="420" width="120" height="60" as="geometry" />
        </mxCell>
        <mxCell id="7" value="cooking recipes" style="rounded=0;whiteSpace=wrap;html=1;" vertex="1" parent="1">
          <mxGeometry x="565" y="140" width="120" height="60" as="geometry" />
        </mxCell>
        <mxCell id="24" value="" style="edgeStyle=orthogonalEdgeStyle;rounded=0;orthogonalLoop=1;jettySize=auto;html=1;" edge="1" parent="1" source="11" target="23">
          <mxGeometry relative="1" as="geometry" />
        </mxCell>
        <mxCell id="29" value="" style="edgeStyle=orthogonalEdgeStyle;rounded=0;orthogonalLoop=1;jettySize=auto;html=1;" edge="1" parent="1" source="11" target="28">
          <mxGeometry relative="1" as="geometry" />
        </mxCell>
        <mxCell id="31" style="edgeStyle=orthogonalEdgeStyle;rounded=0;orthogonalLoop=1;jettySize=auto;html=1;exitX=1;exitY=0.5;exitDx=0;exitDy=0;entryX=0.5;entryY=0;entryDx=0;entryDy=0;" edge="1" parent="1" source="11" target="30">
          <mxGeometry relative="1" as="geometry" />
        </mxCell>
        <mxCell id="11" value="Terms and Conditions" style="rounded=0;whiteSpace=wrap;html=1;fillColor=#d5e8d4;strokeColor=#82b366;" vertex="1" parent="1">
          <mxGeometry x="765" y="140" width="120" height="60" as="geometry" />
        </mxCell>
        <mxCell id="20" value="" style="edgeStyle=orthogonalEdgeStyle;rounded=0;orthogonalLoop=1;jettySize=auto;html=1;" edge="1" parent="1" source="17" target="19">
          <mxGeometry relative="1" as="geometry" />
        </mxCell>
        <mxCell id="17" value="Use Cases Training" style="rounded=0;whiteSpace=wrap;html=1;fillColor=#dae8fc;strokeColor=#6c8ebf;" vertex="1" parent="1">
          <mxGeometry x="160" y="280" width="120" height="60" as="geometry" />
        </mxCell>
        <mxCell id="19" value="Case Dispatching" style="rounded=0;whiteSpace=wrap;html=1;" vertex="1" parent="1">
          <mxGeometry x="160" y="420" width="120" height="60" as="geometry" />
        </mxCell>
        <mxCell id="21" value="Use Cases Translation" style="rounded=0;whiteSpace=wrap;html=1;fillColor=#dae8fc;strokeColor=#6c8ebf;" vertex="1" parent="1">
          <mxGeometry x="365" y="140" width="120" height="60" as="geometry" />
        </mxCell>
        <mxCell id="23" value="Do it professionally&lt;br&gt;- Get Raw Data&lt;br&gt;- DB for Vector&lt;br&gt;- LLM validates by himself" style="rounded=0;whiteSpace=wrap;html=1;fillColor=#d5e8d4;strokeColor=#82b366;" vertex="1" parent="1">
          <mxGeometry x="1090" width="145" height="100" as="geometry" />
        </mxCell>
        <mxCell id="27" value="price comparison" style="rounded=0;whiteSpace=wrap;html=1;" vertex="1" parent="1">
          <mxGeometry x="765" y="420" width="120" height="60" as="geometry" />
        </mxCell>
        <mxCell id="33" value="" style="edgeStyle=orthogonalEdgeStyle;rounded=0;orthogonalLoop=1;jettySize=auto;html=1;" edge="1" parent="1" source="28" target="32">
          <mxGeometry relative="1" as="geometry" />
        </mxCell>
        <mxCell id="28" value="Wo soll ich meine Zähne versichern?" style="rounded=0;whiteSpace=wrap;html=1;fillColor=#d5e8d4;strokeColor=#82b366;" vertex="1" parent="1">
          <mxGeometry x="765" width="120" height="60" as="geometry" />
        </mxCell>
        <mxCell id="30" value="Wie viel übernimmt die Visana?" style="rounded=0;whiteSpace=wrap;html=1;" vertex="1" parent="1">
          <mxGeometry x="930" y="220" width="120" height="60" as="geometry" />
        </mxCell>
        <mxCell id="35" value="" style="edgeStyle=orthogonalEdgeStyle;rounded=0;orthogonalLoop=1;jettySize=auto;html=1;" edge="1" parent="1" source="32" target="34">
          <mxGeometry relative="1" as="geometry" />
        </mxCell>
        <mxCell id="32" value="Leistungsvergleich:&lt;br&gt;&lt;br&gt;- Visana übernimmt 3k&lt;br&gt;- Helsana 3.5k" style="rounded=0;whiteSpace=wrap;html=1;fillColor=#d5e8d4;strokeColor=#82b366;" vertex="1" parent="1">
          <mxGeometry x="752.5" y="-160" width="145" height="80" as="geometry" />
        </mxCell>
        <mxCell id="udRZpOPHPjY6Q6l44HO3-36" value="" style="edgeStyle=orthogonalEdgeStyle;rounded=0;orthogonalLoop=1;jettySize=auto;html=1;" edge="1" parent="1" source="34" target="udRZpOPHPjY6Q6l44HO3-35">
          <mxGeometry relative="1" as="geometry" />
        </mxCell>
        <mxCell id="34" value="Validierung:&amp;nbsp;&lt;br&gt;&lt;br&gt;- Reformulate and compare output&lt;br&gt;- LLM recommendation" style="rounded=0;whiteSpace=wrap;html=1;fillColor=#d5e8d4;strokeColor=#82b366;" vertex="1" parent="1">
          <mxGeometry x="1090" y="-160" width="145" height="80" as="geometry" />
        </mxCell>
        <mxCell id="udRZpOPHPjY6Q6l44HO3-35" value="Track questions and results (Insights)" style="rounded=0;whiteSpace=wrap;html=1;fillColor=#d5e8d4;strokeColor=#82b366;" vertex="1" parent="1">
          <mxGeometry x="1315" y="-160" width="145" height="80" as="geometry" />
        </mxCell>
      </root>
    </mxGraphModel>
  </diagram>
  <diagram id="-GKdbXch_za30dxXo-Vu" name="Architecture">
    <mxGraphModel dx="948" dy="615" grid="1" gridSize="10" guides="1" tooltips="1" connect="1" arrows="1" fold="1" page="1" pageScale="1" pageWidth="850" pageHeight="1100" math="0" shadow="0">
      <root>
        <mxCell id="0" />
        <mxCell id="1" parent="0" />
        <mxCell id="NM-GDjzohoR6EBJCUad8-3" value="" style="edgeStyle=orthogonalEdgeStyle;rounded=0;orthogonalLoop=1;jettySize=auto;html=1;" edge="1" parent="1" source="NM-GDjzohoR6EBJCUad8-1" target="NM-GDjzohoR6EBJCUad8-2">
          <mxGeometry relative="1" as="geometry" />
        </mxCell>
        <mxCell id="NM-GDjzohoR6EBJCUad8-7" value="" style="edgeStyle=orthogonalEdgeStyle;rounded=0;orthogonalLoop=1;jettySize=auto;html=1;" edge="1" parent="1" source="NM-GDjzohoR6EBJCUad8-1" target="NM-GDjzohoR6EBJCUad8-6">
          <mxGeometry relative="1" as="geometry" />
        </mxCell>
        <mxCell id="NM-GDjzohoR6EBJCUad8-9" value="" style="edgeStyle=orthogonalEdgeStyle;rounded=0;orthogonalLoop=1;jettySize=auto;html=1;" edge="1" parent="1" source="NM-GDjzohoR6EBJCUad8-1" target="NM-GDjzohoR6EBJCUad8-8">
          <mxGeometry relative="1" as="geometry" />
        </mxCell>
        <mxCell id="NM-GDjzohoR6EBJCUad8-11" value="" style="edgeStyle=orthogonalEdgeStyle;rounded=0;orthogonalLoop=1;jettySize=auto;html=1;" edge="1" parent="1" source="NM-GDjzohoR6EBJCUad8-1" target="NM-GDjzohoR6EBJCUad8-10">
          <mxGeometry relative="1" as="geometry" />
        </mxCell>
        <mxCell id="NM-GDjzohoR6EBJCUad8-1" value="Architecture" style="rounded=0;whiteSpace=wrap;html=1;" vertex="1" parent="1">
          <mxGeometry x="380" y="290" width="120" height="60" as="geometry" />
        </mxCell>
        <mxCell id="NM-GDjzohoR6EBJCUad8-5" value="" style="edgeStyle=orthogonalEdgeStyle;rounded=0;orthogonalLoop=1;jettySize=auto;html=1;" edge="1" parent="1" source="NM-GDjzohoR6EBJCUad8-2" target="NM-GDjzohoR6EBJCUad8-4">
          <mxGeometry relative="1" as="geometry" />
        </mxCell>
        <mxCell id="NM-GDjzohoR6EBJCUad8-2" value="Save Embeddings" style="rounded=0;whiteSpace=wrap;html=1;" vertex="1" parent="1">
          <mxGeometry x="580" y="290" width="120" height="60" as="geometry" />
        </mxCell>
        <mxCell id="NM-GDjzohoR6EBJCUad8-4" value="Chroma Vector DB" style="rounded=0;whiteSpace=wrap;html=1;" vertex="1" parent="1">
          <mxGeometry x="780" y="290" width="120" height="60" as="geometry" />
        </mxCell>
        <mxCell id="NM-GDjzohoR6EBJCUad8-6" value="Input are PDFs" style="rounded=0;whiteSpace=wrap;html=1;" vertex="1" parent="1">
          <mxGeometry x="180" y="290" width="120" height="60" as="geometry" />
        </mxCell>
        <mxCell id="NM-GDjzohoR6EBJCUad8-8" value="Git Repo" style="rounded=0;whiteSpace=wrap;html=1;" vertex="1" parent="1">
          <mxGeometry x="380" y="150" width="120" height="60" as="geometry" />
        </mxCell>
        <mxCell id="NM-GDjzohoR6EBJCUad8-10" value="Python" style="rounded=0;whiteSpace=wrap;html=1;" vertex="1" parent="1">
          <mxGeometry x="380" y="430" width="120" height="60" as="geometry" />
        </mxCell>
      </root>
    </mxGraphModel>
  </diagram>
  <diagram id="Ae6PgNGVXrj4DY2SsLO9" name="Process">
    <mxGraphModel dx="948" dy="615" grid="1" gridSize="10" guides="1" tooltips="1" connect="1" arrows="1" fold="1" page="1" pageScale="1" pageWidth="850" pageHeight="1100" math="0" shadow="0">
      <root>
        <mxCell id="0" />
        <mxCell id="1" parent="0" />
        <mxCell id="KyEalFoIpqXWcin-aSM0-3" value="" style="edgeStyle=orthogonalEdgeStyle;rounded=0;orthogonalLoop=1;jettySize=auto;html=1;" edge="1" parent="1" source="KyEalFoIpqXWcin-aSM0-1" target="KyEalFoIpqXWcin-aSM0-2">
          <mxGeometry relative="1" as="geometry" />
        </mxCell>
        <mxCell id="KyEalFoIpqXWcin-aSM0-1" value="" style="ellipse;whiteSpace=wrap;html=1;" vertex="1" parent="1">
          <mxGeometry x="80" y="280" width="120" height="80" as="geometry" />
        </mxCell>
        <mxCell id="KyEalFoIpqXWcin-aSM0-2" value="Define insurances PDFs" style="whiteSpace=wrap;html=1;" vertex="1" parent="1">
          <mxGeometry x="280" y="290" width="120" height="60" as="geometry" />
        </mxCell>
      </root>
    </mxGraphModel>
  </diagram>
</mxfile>
